<svg version="1.1" xmlns="http://www.w3.org/2000/svg" viewBox="0 0 141.5999755859375 292.00001525878906" width="141.5999755859375" height="292.00001525878906" filter="invert(93%) hue-rotate(180deg)">
  <!-- svg-source:excalidraw -->
  
  <defs>
    <style class="style-fonts">
      @font-face {
        font-family: "Virgil";
        src: url("https://excalidraw.com/Virgil.woff2");
      }
      @font-face {
        font-family: "Cascadia";
        src: url("https://excalidraw.com/Cascadia.woff2");
      }
    </style>
  </defs>
  <rect x="0" y="0" width="141.5999755859375" height="292.00001525878906" fill="transparent"/><g stroke-linecap="round" transform="translate(10 98.80003356933594) rotate(0 60.79998779296875 91.59999084472656)"><path d="M30.2 0.41 L97.35 2.42 L109.05 4.61 L116.86 10.72 L121.41 16.98 L121.54 31.56 L120.3 161.8 L117.34 170.23 L115.55 176.61 L102.64 182.29 L89.45 185.11 L24.55 183.98 L12.18 180.04 L6.58 176.01 L0.21 167.14 L1.42 152.89 L0.94 23.3 L3.24 17.94 L6.17 5.91 L17.18 2.01 L28.42 0.06" stroke="none" stroke-width="0" fill="#12b886"/><path d="M30.4 0 M30.4 0 C52.74 -1.58, 76.98 -1.48, 91.2 0 M30.4 0 C42.79 0.34, 54.42 -0.21, 91.2 0 M91.2 0 C112.23 1.31, 122.22 10.43, 121.6 30.4 M91.2 0 C110.91 -0.81, 123.57 9.91, 121.6 30.4 M121.6 30.4 C122.73 74.83, 123.33 121.77, 121.6 152.8 M121.6 30.4 C121.15 76.79, 121.34 122.84, 121.6 152.8 M121.6 152.8 C120.01 174.59, 110.74 184.7, 91.2 183.2 M121.6 152.8 C122.26 174.39, 110.26 181.29, 91.2 183.2 M91.2 183.2 C74.15 183.17, 54.22 184.85, 30.4 183.2 M91.2 183.2 C77.68 183.65, 62.85 183.66, 30.4 183.2 M30.4 183.2 C10.03 183.14, 0.12 173.03, 0 152.8 M30.4 183.2 C8.06 184.18, 1.74 172.53, 0 152.8 M0 152.8 C-1.01 119.67, 0.48 86.49, 0 30.4 M0 152.8 C-1.16 115.99, -1.04 80.83, 0 30.4 M0 30.4 C-0.58 8.43, 9.23 0.18, 30.4 0 M0 30.4 C1.79 11.54, 11.52 -2.17, 30.4 0" stroke="#000000" stroke-width="4" fill="none"/></g><g stroke-linecap="round" transform="translate(39.5999755859375 82.00001525878906) rotate(0 31.20001220703125 11.600006103515625)"><path d="M5.93 1.41 L58.72 -1.23 L63.56 2.54 L63.54 20.51 L57.75 22.15 L1.6 22.81 L-0.29 20.88 L1.11 5.48 L0.79 2.82 L4.56 -0.66" stroke="none" stroke-width="0" fill="#12b886"/><path d="M5.8 0 M5.8 0 C25.46 0.12, 42.61 -0.1, 56.6 0 M5.8 0 C21.77 1.21, 36.65 0.1, 56.6 0 M56.6 0 C59.9 -0.58, 61.04 1.2, 62.4 5.8 M56.6 0 C60.61 -1.77, 62.32 3.98, 62.4 5.8 M62.4 5.8 C62.45 10.78, 62.06 13.3, 62.4 17.4 M62.4 5.8 C62.77 9.11, 61.86 12.08, 62.4 17.4 M62.4 17.4 C60.48 21.75, 61.55 21.31, 56.6 23.2 M62.4 17.4 C62.44 21.92, 59.29 21.26, 56.6 23.2 M56.6 23.2 C38.91 23.73, 21.59 21.78, 5.8 23.2 M56.6 23.2 C46.13 24.07, 33.2 23.93, 5.8 23.2 M5.8 23.2 C0.48 22.3, 1.9 21.23, 0 17.4 M5.8 23.2 C2.27 22.75, 0.5 19.59, 0 17.4 M0 17.4 C0.07 13.75, 1.07 11.45, 0 5.8 M0 17.4 C0.53 13.7, 0.21 9.91, 0 5.8 M0 5.8 C0.24 3.67, 3.83 -0.14, 5.8 0 M0 5.8 C-1.56 2.69, 2.6 1.11, 5.8 0" stroke="#000000" stroke-width="4" fill="none"/></g><g stroke-linecap="round" transform="translate(44.399993896484375 10) rotate(0 26.399993896484375 35.600013732910156)"><path d="M13.2 0 M13.2 0 C19.03 0.14, 23.3 1.88, 39.6 0 M13.2 0 C18.55 0.89, 25.64 0.35, 39.6 0 M39.6 0 C49.74 0.24, 54.53 6.29, 52.8 13.2 M39.6 0 C48.24 -1.56, 53.55 5.06, 52.8 13.2 M52.8 13.2 C54.29 30.75, 51.54 43.6, 52.8 58 M52.8 13.2 C53.55 27.21, 53.88 38.57, 52.8 58 M52.8 58 C54.55 66.59, 46.7 71.45, 39.6 71.2 M52.8 58 C50.63 64.98, 50.52 69.39, 39.6 71.2 M39.6 71.2 C31.24 70.01, 24.94 73.16, 13.2 71.2 M39.6 71.2 C31.92 71.62, 23.54 70.69, 13.2 71.2 M13.2 71.2 C3.64 69.28, 0.09 66.43, 0 58 M13.2 71.2 C4.66 70.74, 0.37 67.8, 0 58 M0 58 C-1.57 41.63, 1.47 27.07, 0 13.2 M0 58 C-0.58 42.58, -0.74 25.24, 0 13.2 M0 13.2 C-0.13 5.74, 4.13 1.22, 13.2 0 M0 13.2 C-1.36 4.27, 4.59 1.92, 13.2 0" stroke="#000000" stroke-width="4" fill="none"/></g><g stroke-linecap="round" transform="translate(54.000030517578125 33.20002746582031) rotate(0 16.799957275390625 23.599990844726562)"><path d="M7.81 -0.76 L26.95 0.62 L32.71 4.95 L33.2 39.12 L33.94 43.33 L30.76 47.6 L3.58 45.67 L2.41 42.27 L1.76 3.79 L4.18 -1.06 L9.98 -1.9" stroke="none" stroke-width="0" fill="#000"/><path d="M8.4 0 M8.4 0 C12.66 0.92, 16.38 -0.21, 25.2 0 M8.4 0 C13.79 -0.71, 18.82 0.82, 25.2 0 M25.2 0 C31.16 1.29, 34.66 2.07, 33.6 8.4 M25.2 0 C31.43 -0.71, 33.23 3.71, 33.6 8.4 M33.6 8.4 C34.53 19.4, 35.06 28.57, 33.6 38.8 M33.6 8.4 C33.55 15.22, 32.92 21.96, 33.6 38.8 M33.6 38.8 C32.44 43.16, 32.74 45.88, 25.2 47.2 M33.6 38.8 C34.88 42.48, 32.76 45.03, 25.2 47.2 M25.2 47.2 C17.9 47.74, 13.03 48.37, 8.4 47.2 M25.2 47.2 C19.68 48.02, 14.02 47.76, 8.4 47.2 M8.4 47.2 C3.63 47.88, -1.91 42.43, 0 38.8 M8.4 47.2 C2.36 46.88, 2.23 44.01, 0 38.8 M0 38.8 C-1.74 30.23, -0.55 19.5, 0 8.4 M0 38.8 C0.04 30.8, -0.14 22.33, 0 8.4 M0 8.4 C-0.54 4.34, 3.33 -0.09, 8.4 0 M0 8.4 C0.61 2.37, 2.66 -1.75, 8.4 0" stroke="#000000" stroke-width="4" fill="none"/></g><g stroke-linecap="round" transform="translate(70 46.00001525878906) rotate(0 2.399993896484375 2.4000091552734375)"><path d="M3.37 0.34 C4.02 0.65, 4.44 0.88, 4.62 1.36 C4.79 1.83, 4.55 2.82, 4.41 3.19 C4.26 3.56, 4.13 3.35, 3.75 3.58 C3.37 3.82, 2.47 4.36, 2.12 4.6 C1.76 4.85, 1.95 5.21, 1.63 5.06 C1.3 4.92, 0.53 4.35, 0.16 3.73 C-0.21 3.11, -0.92 2.06, -0.6 1.31 C-0.28 0.57, 1.5 -0.48, 2.07 -0.76 C2.64 -1.04, 2.63 -0.6, 2.83 -0.4 C3.03 -0.19, 3.04 0.36, 3.27 0.48 M2.46 -0.99 C3.11 -0.53, 3.97 1.75, 4.4 2.43 C4.83 3.11, 5.33 2.69, 5.05 3.1 C4.78 3.51, 3.33 4.8, 2.74 4.88 C2.16 4.97, 1.87 3.92, 1.52 3.61 C1.18 3.3, 0.84 3.28, 0.66 3.01 C0.47 2.74, 0.46 2.31, 0.43 1.98 C0.39 1.66, 0.09 1.19, 0.44 1.09 C0.8 0.99, 2.05 1.79, 2.57 1.39 C3.1 0.99, 3.48 -1, 3.6 -1.32 C3.71 -1.63, 3.49 -0.69, 3.27 -0.51" stroke="none" stroke-width="0" fill="#000"/><path d="M4.04 0.61 C4.4 0.6, 4.51 -0.28, 4.56 0.19 C4.6 0.66, 4.52 2.59, 4.33 3.43 C4.14 4.27, 3.64 5.1, 3.41 5.22 C3.18 5.34, 3.28 4.19, 2.93 4.14 C2.58 4.09, 1.91 5.01, 1.31 4.91 C0.71 4.82, -0.48 4.15, -0.66 3.57 C-0.83 3, -0.01 2.05, 0.26 1.46 C0.53 0.87, 0.56 0.17, 0.94 0.04 C1.33 -0.1, 1.98 0.61, 2.57 0.63 C3.16 0.65, 4.25 0.31, 4.48 0.17 M2.07 -0.57 C2.44 -0.16, 4.01 1.52, 4.31 1.99 C4.61 2.46, 4.01 1.94, 3.86 2.24 C3.72 2.55, 3.84 3.17, 3.46 3.81 C3.08 4.45, 2.15 5.85, 1.59 6.09 C1.02 6.33, 0.18 5.84, 0.08 5.24 C-0.02 4.65, 1.2 3.09, 0.99 2.52 C0.77 1.95, -1.27 2.31, -1.21 1.82 C-1.15 1.33, 0.91 -0.12, 1.36 -0.42 C1.81 -0.72, 1.25 -0.27, 1.49 0.02 C1.73 0.32, 2.55 1.28, 2.79 1.34" stroke="#087f5b" stroke-width="4" fill="none"/></g></svg>