<svg version="1.1" xmlns="http://www.w3.org/2000/svg" viewBox="0 0 277.03168777322963 226.41474346747543" width="277.03168777322963" height="226.41474346747543" filter="invert(93%) hue-rotate(180deg)">
  <!-- svg-source:excalidraw -->
  
  <defs>
    <style class="style-fonts">
      @font-face {
        font-family: "Virgil";
        src: url("https://excalidraw.com/Virgil.woff2");
      }
      @font-face {
        font-family: "Cascadia";
        src: url("https://excalidraw.com/Cascadia.woff2");
      }
    </style>
  </defs>
  <rect x="0" y="0" width="277.03168777322963" height="226.41474346747543" fill="transparent"/><g stroke-linecap="round"><g transform="translate(126.08020753396085 103.60463793520432) rotate(0 12.000030517578125 10.539374263366568)" fill-rule="evenodd"><path d="M1.51 1.15 L0.23 -27.21 L-3.74 -52.09 L-4.09 -58.32 L4.85 -76.95 L15.42 -84.22 L25.14 -90.62 L32.58 -93.84 L47.43 -92.6 L59.65 -91.89 L69.53 -88.84 L79.97 -79.04 L90.98 -71.46 L95.51 -64.17 L101.59 -52.14 L98.74 -44.87 L95.68 -36.48 L83.72 -19.81 L77.99 -15.88 L62.33 -9.96 L56 -4.16 L54.99 1.55 L55.88 18.01 L57.42 23.6 L65.67 25.13 L105.96 33.19 L119.85 42.5 L133.55 52.95 L138.11 67.03 L141.43 81.81 L135.51 94.55 L123.01 103.26 L103.42 110.18 L95.62 113.06 L74.58 110.47 L58.38 108.1 L42.41 91.33 L25.2 55.46 L23.37 47.32 L19.41 47.01 L11.42 45.42 L2.36 43.04 L-11.78 49.95 L-31.87 68.15 L-41.66 73.61 L-60.35 76.99 L-75.48 76.81 L-91.87 69.1 L-107.43 57.42 L-114.17 41.79 L-114.86 28.07 L-114.96 21.6 L-96.4 4.88 L-84.71 -1.73 L-71.11 -4.44 L-55.62 -2.74 L-38.85 -4.02 L-14.36 6.55 L-10.05 8.17 L-1.89 0.96" stroke="none" stroke-width="0" fill="#be4bdb" fill-rule="evenodd"/><path d="M-0.82 -0.36 C-0.5 -4.79, 2.77 -17.11, 2.12 -26.67 C1.48 -36.22, -8.33 -47.29, -4.7 -57.69 C-1.06 -68.09, 11.11 -84.05, 23.91 -89.06 C36.71 -94.07, 59.2 -93.6, 72.1 -87.77 C84.99 -81.93, 98.88 -64.97, 101.3 -54.05 C103.71 -43.12, 93.82 -30.86, 86.56 -22.21 C79.31 -13.55, 62.4 -9.69, 57.77 -2.13 C53.15 5.42, 53.56 17.86, 58.82 23.14 C64.07 28.42, 78.76 26.35, 89.31 29.56 C99.86 32.76, 113.62 35.95, 122.11 42.36 C130.59 48.78, 138.2 59.65, 140.21 68.03 C142.23 76.42, 140.08 85.63, 134.21 92.69 C128.33 99.74, 116.53 107.35, 104.99 110.36 C93.45 113.36, 75.56 113.75, 64.98 110.72 C54.39 107.68, 46.8 98.8, 41.47 92.14 C36.14 85.47, 36.95 78.55, 32.99 70.72 C29.03 62.9, 25.2 48.64, 17.72 45.18 C10.24 41.73, -2.26 45.06, -11.9 49.98 C-21.54 54.89, -29.17 70.18, -40.11 74.67 C-51.06 79.17, -66.45 79.82, -77.59 76.95 C-88.72 74.08, -100.56 65.61, -106.91 57.45 C-113.26 49.29, -117.42 36.62, -115.68 27.98 C-113.95 19.34, -103.84 10.67, -96.49 5.6 C-89.13 0.52, -81.13 -1.25, -71.55 -2.48 C-61.97 -3.7, -48.56 -3.45, -39.01 -1.77 C-29.46 -0.08, -20.89 7.45, -14.27 7.64 C-7.66 7.82, -1.65 0.5, 0.68 -0.66 M0.96 -1.59 C1.19 -6.32, 2.84 -18.5, 1.75 -28.17 C0.66 -37.84, -9.38 -49.13, -5.58 -59.61 C-1.79 -70.1, 11.75 -86.38, 24.53 -91.05 C37.31 -95.73, 58.6 -93.62, 71.1 -87.66 C83.59 -81.71, 97.32 -66.59, 99.49 -55.34 C101.67 -44.09, 91.26 -29.07, 84.15 -20.16 C77.05 -11.26, 61.33 -8.94, 56.86 -1.93 C52.38 5.08, 51.72 16.21, 57.29 21.91 C62.87 27.61, 79.44 28.65, 90.33 32.26 C101.21 35.88, 114.52 37.6, 122.62 43.59 C130.71 49.58, 136.96 59.66, 138.91 68.22 C140.87 76.78, 140.02 88.04, 134.33 94.96 C128.65 101.87, 116.36 107.1, 104.8 109.72 C93.24 112.33, 75.46 113.48, 64.98 110.66 C54.5 107.85, 47.37 99.33, 41.92 92.82 C36.47 86.3, 36.5 79.46, 32.26 71.59 C28.02 63.72, 23.54 49.25, 16.5 45.61 C9.46 41.97, -0.7 44.62, -10 49.76 C-19.29 54.9, -27.8 72.08, -39.27 76.45 C-50.74 80.82, -67.56 79.28, -78.83 75.95 C-90.1 72.62, -100.77 64.54, -106.89 56.49 C-113.01 48.45, -117.51 36.25, -115.54 27.68 C-113.57 19.11, -102.1 10.56, -95.06 5.08 C-88.03 -0.41, -82.84 -4.13, -73.32 -5.23 C-63.8 -6.33, -47.98 -3.56, -37.95 -1.52 C-27.93 0.52, -19.29 6.58, -13.17 7.01 C-7.04 7.43, -3.36 2.38, -1.22 1.03" stroke="#000000" stroke-width="4" fill="none"/></g></g><mask/><g stroke-linecap="round" transform="translate(135.25932436640443 25.339196573541244) rotate(0 36.79998779296875 25.55682005734326)"><path d="M49.86 1.81 C57.22 3.44, 65.86 8.34, 69.8 13.04 C73.74 17.75, 75.07 24.79, 73.5 30.04 C71.93 35.3, 66.74 41.17, 60.4 44.6 C54.05 48.02, 43.22 50.62, 35.42 50.59 C27.63 50.56, 19.3 47.79, 13.62 44.43 C7.93 41.06, 2.85 35.73, 1.32 30.39 C-0.21 25.04, 0.63 17.32, 4.42 12.36 C8.22 7.4, 16.19 2.36, 24.09 0.63 C31.98 -1.11, 46.73 1.37, 51.8 1.95 C56.87 2.53, 54.6 3.53, 54.51 4.12 M20.46 1.91 C26.81 -0.82, 37.09 -1.21, 44.6 0.3 C52.12 1.82, 60.89 6.29, 65.55 10.99 C70.22 15.7, 72.94 22.93, 72.61 28.53 C72.29 34.14, 68.97 40.89, 63.63 44.62 C58.28 48.35, 48.69 50.66, 40.56 50.92 C32.44 51.17, 21.2 49, 14.88 46.15 C8.57 43.3, 4.67 38.87, 2.69 33.83 C0.72 28.79, -0.15 20.92, 3.05 15.91 C6.25 10.91, 18.67 6.09, 21.9 3.81 C25.14 1.53, 22.16 2.19, 22.45 2.25" stroke="none" stroke-width="0" fill="#228be6"/><path d="M51.74 2.39 C58.79 3.96, 66.5 8.36, 70.14 13.09 C73.77 17.82, 75.47 25.17, 73.54 30.77 C71.61 36.36, 65.18 43.16, 58.56 46.65 C51.95 50.15, 41.53 52.01, 33.85 51.73 C26.17 51.45, 17.95 48.84, 12.51 45 C7.08 41.16, 2.22 34.22, 1.25 28.71 C0.27 23.19, 2.67 16.5, 6.67 11.93 C10.67 7.35, 17.45 2.81, 25.25 1.27 C33.05 -0.28, 48.79 2.16, 53.45 2.68 C58.11 3.21, 53.58 4.03, 53.2 4.41 M24.39 2.27 C30.98 0.15, 41.32 0.24, 48.82 2.15 C56.31 4.06, 65.46 9.07, 69.35 13.7 C73.23 18.33, 73.62 24.64, 72.11 29.93 C70.6 35.22, 66.12 42.04, 60.28 45.43 C54.45 48.81, 44.86 50.18, 37.11 50.24 C29.37 50.31, 19.75 49.13, 13.81 45.8 C7.86 42.48, 3 35.77, 1.44 30.3 C-0.12 24.82, 0.69 17.86, 4.46 12.95 C8.24 8.03, 20.83 2.64, 24.11 0.8 C27.38 -1.04, 23.85 1.17, 24.1 1.9" stroke="#000000" stroke-width="4" fill="none"/></g><g stroke-linecap="round" transform="translate(29.259324366404428 113.13918436651) rotate(0 36.79998779296875 27.3254503273007)"><path d="M51.69 1.72 C58 3.5, 64.22 9.43, 67.82 14.11 C71.41 18.79, 73.8 24.62, 73.26 29.78 C72.71 34.94, 69.23 40.99, 64.57 45.08 C59.9 49.16, 52.21 53.13, 45.27 54.29 C38.33 55.44, 29.52 54.14, 22.91 52.01 C16.3 49.88, 9.24 46.08, 5.61 41.49 C1.99 36.9, 0.44 29.94, 1.16 24.46 C1.88 18.97, 5.36 12.47, 9.94 8.59 C14.53 4.71, 21.61 2.22, 28.66 1.2 C35.71 0.18, 47.99 1.94, 52.24 2.48 C56.49 3.01, 54.26 4.01, 54.18 4.4 M43.01 0.48 C49.51 1.04, 56.87 3.86, 62.07 7.69 C67.26 11.53, 72.7 18.19, 74.18 23.49 C75.67 28.78, 74.64 34.94, 70.96 39.49 C67.29 44.03, 58.77 48.28, 52.13 50.77 C45.48 53.26, 38.07 55.24, 31.11 54.41 C24.15 53.59, 15.68 49.86, 10.36 45.83 C5.03 41.8, 0.33 35.19, -0.83 30.25 C-1.98 25.32, -0.25 20.68, 3.42 16.22 C7.08 11.76, 14.76 6.32, 21.16 3.48 C27.57 0.63, 38.13 -0.59, 41.85 -0.84 C45.57 -1.09, 43.59 1.28, 43.47 1.97" stroke="none" stroke-width="0" fill="#228be6"/><path d="M26.45 0.77 C32.71 -1.16, 42.62 -0.89, 49.38 0.96 C56.13 2.82, 62.97 7.23, 66.98 11.9 C70.99 16.57, 73.62 23.45, 73.44 29 C73.25 34.55, 70.51 41.12, 65.87 45.22 C61.22 49.32, 52.49 52.36, 45.55 53.57 C38.61 54.79, 30.87 54.54, 24.22 52.5 C17.57 50.45, 9.72 45.86, 5.63 41.3 C1.54 36.75, -0.75 30.44, -0.3 25.16 C0.14 19.88, 2.68 13.72, 8.29 9.62 C13.9 5.52, 28.23 2.05, 33.37 0.58 C38.52 -0.89, 39.2 0.5, 39.16 0.77 M31.08 1.29 C37.7 0.16, 48.06 2.24, 54.69 4.43 C61.32 6.62, 67.61 9.99, 70.86 14.46 C74.1 18.93, 75.29 25.96, 74.15 31.25 C73.01 36.53, 69.31 42.1, 64.04 46.17 C58.76 50.24, 49.81 54.68, 42.5 55.64 C35.19 56.6, 26.5 54.81, 20.16 51.92 C13.82 49.04, 7.65 43.08, 4.45 38.32 C1.25 33.56, -0.18 28.23, 0.96 23.39 C2.1 18.55, 6.25 13.36, 11.28 9.29 C16.31 5.21, 27.55 0.54, 31.13 -1.05 C34.7 -2.63, 32.71 -1.1, 32.71 -0.23" stroke="#000000" stroke-width="4" fill="none"/></g><g stroke-linecap="round" transform="translate(177.85929995234193 150.93917215947874) rotate(0 36.79998779296875 24.96727288579848)"><path d="M51.98 2.16 C59.24 4.02, 66.33 9.11, 69.68 13.72 C73.03 18.32, 73.77 24.64, 72.08 29.81 C70.39 34.98, 65.78 41.34, 59.54 44.74 C53.3 48.13, 42.68 50.34, 34.64 50.19 C26.6 50.05, 16.98 47.41, 11.3 43.87 C5.61 40.32, 1.49 34.25, 0.54 28.93 C-0.41 23.61, 1.28 16.44, 5.59 11.97 C9.9 7.49, 18.45 3.52, 26.39 2.07 C34.34 0.63, 48.54 3.05, 53.25 3.31 C57.96 3.57, 54.8 3.45, 54.65 3.63 M33.28 -0.42 C40.6 -1.33, 51.13 2.14, 57.42 5.21 C63.7 8.28, 68.75 13.23, 70.97 18.01 C73.2 22.8, 73.75 28.87, 70.76 33.91 C67.76 38.95, 60.01 45.45, 53.01 48.25 C46 51.06, 36.39 52.32, 28.72 50.73 C21.05 49.15, 11.92 43.2, 6.98 38.72 C2.05 34.23, -1.42 29.02, -0.91 23.83 C-0.39 18.65, 4.64 11.74, 10.08 7.59 C15.51 3.44, 28.16 0.19, 31.69 -1.08 C35.23 -2.34, 30.86 -0.77, 31.29 0" stroke="none" stroke-width="0" fill="#228be6"/><path d="M51.4 1.6 C58.21 3.37, 65.52 8.42, 68.97 13.28 C72.41 18.14, 73.76 25.39, 72.09 30.76 C70.41 36.13, 65.07 42.44, 58.92 45.48 C52.77 48.52, 43.14 49.32, 35.2 49 C27.25 48.67, 17.15 47.13, 11.26 43.52 C5.37 39.91, 0.86 32.8, -0.15 27.34 C-1.16 21.88, 0.9 15.13, 5.2 10.77 C9.5 6.41, 17.44 2.32, 25.64 1.17 C33.84 0.02, 48.98 3.1, 54.4 3.88 C59.82 4.65, 58.34 5.54, 58.16 5.79 M26 1.14 C33.15 -0.94, 43.32 0.36, 50.69 2.47 C58.05 4.58, 66.57 9.11, 70.17 13.79 C73.77 18.48, 74.06 25.26, 72.3 30.58 C70.54 35.89, 65.69 42.41, 59.61 45.68 C53.53 48.95, 43.4 50.43, 35.83 50.2 C28.26 49.97, 20.02 47.73, 14.19 44.31 C8.36 40.89, 2.58 34.93, 0.87 29.67 C-0.85 24.41, -0.14 17.41, 3.9 12.75 C7.94 8.09, 21.38 3.55, 25.1 1.7 C28.82 -0.15, 26.34 1.11, 26.22 1.66" stroke="#000000" stroke-width="4" fill="none"/></g><g stroke-linecap="round" transform="translate(128.3365598260695 111.74619001298481) rotate(0 19.45497794823956 14.561753127873573)"><path d="M11.2 2.69 C14.31 1.04, 18.65 0.12, 22.73 0.71 C26.81 1.3, 32.85 3.78, 35.68 6.22 C38.51 8.67, 39.95 12.47, 39.71 15.37 C39.47 18.26, 37.06 21.35, 34.22 23.59 C31.38 25.82, 26.72 28.14, 22.67 28.78 C18.61 29.43, 13.5 29.12, 9.88 27.45 C6.26 25.79, 2.47 21.98, 0.93 18.81 C-0.6 15.64, -1.37 11.49, 0.66 8.43 C2.69 5.37, 10.28 1.97, 13.1 0.47 C15.93 -1.03, 17.37 -0.88, 17.64 -0.58 M18.86 -0.39 C22.65 -0.5, 28.78 1.11, 32.29 2.92 C35.8 4.73, 39.24 7.31, 39.9 10.48 C40.57 13.64, 38.7 18.84, 36.31 21.91 C33.92 24.98, 29.64 27.82, 25.56 28.9 C21.47 29.99, 15.77 29.61, 11.79 28.43 C7.81 27.24, 3.37 24.73, 1.68 21.78 C-0.02 18.83, 0.54 13.91, 1.62 10.73 C2.7 7.55, 5.17 4.7, 8.16 2.7 C11.16 0.71, 17.54 -0.99, 19.6 -1.22 C21.66 -1.45, 20.6 0.78, 20.5 1.35" stroke="#000000" stroke-width="4" fill="none"/></g></svg>