<svg version="1.1" xmlns="http://www.w3.org/2000/svg" viewBox="0 0 270.13687471839484 226.41821262532687" width="270.13687471839484" height="226.41821262532687" filter="invert(93%) hue-rotate(180deg)">
  <!-- svg-source:excalidraw -->
  
  <defs>
    <style class="style-fonts">
      @font-face {
        font-family: "Virgil";
        src: url("https://excalidraw.com/Virgil.woff2");
      }
      @font-face {
        font-family: "Cascadia";
        src: url("https://excalidraw.com/Cascadia.woff2");
      }
    </style>
  </defs>
  <rect x="0" y="0" width="270.13687471839484" height="226.41821262532687" fill="transparent"/><g stroke-linecap="round"><g transform="translate(21.610973453139707 152.90795979324696) rotate(0 90.73730090654684 -48.72425733998955)" fill-rule="evenodd"><path d="M3.27 1.61 L42.47 -41.33 L53.17 -57.93 L50.41 -86.39 L49.58 -88.88 L68.3 -109.63 L86.63 -130.12 L94.02 -125.4 L98.23 -118.88 L96.6 -108.39 L87.47 -95.78 L131.4 -138.03 L134.83 -139.99 L145.89 -141.27 L145.82 -136.66 L147.36 -134.14 L150.34 -127.27 L108.6 -97.51 L156.25 -134.32 L162.12 -138.9 L169.04 -133.16 L172.46 -133.18 L165.59 -117.56 L128.4 -87.07 L167.46 -111.84 L173.48 -116.44 L176.81 -110.78 L178.49 -112.73 L179.68 -101.83 L142.37 -71.06 L178.08 -98.99 L180.13 -97.88 L183.19 -96.24 L187.1 -93.37 L186.28 -86.89 L116.51 -18.99 L99.15 -14.3 L93.92 -5.98 L51.06 41.06 L44.4 37.77 L26.09 42.93 L-1.1 26.15 L-7.23 15.14 L-12.14 6.88 L-0.52 2.99" stroke="none" stroke-width="0" fill="#4c6ef5" fill-rule="evenodd"/><path d="M0.73 1.23 C8.2 -5.02, 35.16 -26.62, 43.15 -38.65 C51.14 -50.68, 46.66 -61.58, 48.69 -70.93 C50.71 -80.28, 49.61 -86.48, 55.32 -94.76 C61.03 -103.04, 75.98 -115.44, 82.96 -120.62 C89.94 -125.8, 94 -127.07, 97.2 -125.84 C100.41 -124.61, 104.22 -118.1, 102.2 -113.24 C100.18 -108.38, 80.49 -92.64, 85.09 -96.68 C89.69 -100.71, 119.41 -131.64, 129.79 -137.46 C140.18 -143.28, 150.84 -138.51, 147.42 -131.6 C143.99 -124.68, 108.02 -95.59, 109.26 -95.96 C110.49 -96.34, 144.44 -129.47, 154.84 -133.85 C165.25 -138.23, 176.63 -130.53, 171.7 -122.23 C166.76 -113.93, 126.01 -85.02, 125.24 -84.05 C124.46 -83.07, 158.25 -113.26, 167.07 -116.39 C175.9 -119.51, 182.12 -110.77, 178.18 -102.82 C174.24 -94.88, 144.3 -69.74, 143.45 -68.71 C142.6 -67.69, 166.11 -93.87, 173.08 -96.68 C180.05 -99.48, 190.23 -94.74, 185.29 -85.53 C180.36 -76.33, 155.44 -52.91, 143.49 -41.46 C131.55 -30, 122.59 -22.15, 113.63 -16.8 C104.67 -11.45, 102.2 -18.78, 89.73 -9.35 C77.25 0.08, 54.6 35.86, 38.75 39.76 C22.91 43.65, 0.9 20.39, -5.35 14 C-11.59 7.61, 0.32 3.59, 1.27 1.44 M-2.33 -0.58 C6.23 -7.47, 39.34 -31.08, 48.76 -42.44 C58.18 -53.81, 52.86 -60.27, 54.22 -68.76 C55.58 -77.26, 52.49 -85.15, 56.91 -93.44 C61.32 -101.73, 74.66 -112.96, 80.72 -118.52 C86.79 -124.08, 90.68 -127.15, 93.28 -126.81 C95.88 -126.46, 98.07 -121.31, 96.34 -116.45 C94.61 -111.59, 77.92 -93.63, 82.89 -97.64 C87.86 -101.65, 115.31 -134.63, 126.17 -140.51 C137.04 -146.39, 150.67 -140.53, 148.08 -132.92 C145.5 -125.31, 108.91 -94.53, 110.67 -94.85 C112.44 -95.17, 148.31 -130.19, 158.67 -134.85 C169.04 -139.51, 177.48 -131.18, 172.89 -122.81 C168.29 -114.44, 132.06 -85.42, 131.11 -84.62 C130.16 -83.83, 159.01 -114.15, 167.19 -118.03 C175.37 -121.91, 184.47 -116.47, 180.19 -107.91 C175.91 -99.35, 142.02 -68.82, 141.52 -66.67 C141.03 -64.52, 169.26 -91.75, 177.21 -94.99 C185.16 -98.23, 194.7 -94.52, 189.23 -86.11 C183.77 -77.69, 156.16 -55.55, 144.44 -44.5 C132.71 -33.46, 127.92 -25.1, 118.87 -19.83 C109.81 -14.57, 103.71 -22.44, 90.11 -12.91 C76.5 -3.38, 53.84 33.34, 37.23 37.36 C20.63 41.37, -2.86 16.94, -9.53 11.2 C-16.2 5.45, -4.92 4.55, -2.78 2.9" stroke="#000000" stroke-width="4" fill="none"/></g></g><mask/><g stroke-linecap="round"><g transform="translate(53.783085532198186 215.059572927999) rotate(46.30535586040803 90.73730090654684 -48.72425733998958)" fill-rule="evenodd"><path d="M1.97 0.56 L43.09 -43.27 L51.49 -57.13 L51.11 -83.94 L56.11 -96 L69.97 -106.43 L82.93 -129.48 L92.2 -126.28 L100.16 -116.72 L98.85 -106.81 L86.61 -95.61 L126.63 -135.43 L135.82 -141.99 L145.81 -142.43 L147.74 -137.07 L147.8 -134.58 L144.11 -125.72 L106.89 -94.84 L153.97 -133.25 L166.48 -136.21 L169.39 -137.17 L171.37 -134.43 L167.21 -116.79 L123.99 -84.43 L166.28 -113.35 L174.86 -117.7 L179.49 -113.92 L179.18 -112.64 L176.93 -105.61 L137.64 -70.74 L174.08 -101.47 L184.39 -100.17 L184.92 -93.89 L187.25 -90.21 L184.93 -81.98 L113.37 -18.81 L99.46 -14.24 L87.54 -5.05 L44.76 40.28 L43.48 43.94 L29.2 41.44 L-1.86 23.44 L-4.99 17.76 L-6.65 7.22 L1.65 3.87" stroke="none" stroke-width="0" fill="#4c6ef5" fill-rule="evenodd"/><path d="M-0.69 0.76 C6.56 -6.42, 35.78 -29.5, 44.29 -41.38 C52.79 -53.25, 48.95 -61.54, 50.33 -70.5 C51.71 -79.47, 47.13 -86.61, 52.58 -95.19 C58.03 -103.77, 76.27 -116.41, 83.04 -122 C89.82 -127.59, 90.23 -130.28, 93.23 -128.71 C96.23 -127.15, 102.77 -118.45, 101.07 -112.61 C99.38 -106.77, 78.09 -89.92, 83.06 -93.69 C88.03 -97.45, 119.41 -128.86, 130.9 -135.2 C142.39 -141.55, 156.13 -138.23, 152 -131.74 C147.87 -125.25, 105.4 -96.2, 106.13 -96.28 C106.86 -96.35, 145.97 -127.07, 156.36 -132.2 C166.76 -137.33, 173.12 -134.68, 168.5 -127.07 C163.88 -119.45, 129.13 -88.73, 128.64 -86.52 C128.15 -84.31, 156.75 -110.53, 165.58 -113.79 C174.4 -117.06, 185.67 -113.14, 181.6 -106.11 C177.53 -99.09, 142.38 -73.28, 141.18 -71.64 C139.98 -70, 166.16 -94.7, 174.38 -96.25 C182.6 -97.81, 196.02 -89.48, 190.5 -80.96 C184.98 -72.43, 153.77 -55.98, 141.26 -45.11 C128.76 -34.23, 124.04 -22.24, 115.46 -15.71 C106.89 -9.18, 102.55 -15.57, 89.81 -5.95 C77.06 3.68, 54.92 38.87, 39.01 42.02 C23.1 45.17, 0.6 20.35, -5.67 12.94 C-11.95 5.54, 0.32 0.04, 1.35 -2.41 M4.13 -1.3 C10.9 -8.18, 34.54 -26.88, 41.88 -38.01 C49.21 -49.15, 46.32 -58.76, 48.12 -68.11 C49.92 -77.46, 47.22 -85.35, 52.68 -94.1 C58.14 -102.86, 73.67 -114.46, 80.86 -120.65 C88.04 -126.84, 92.06 -132.1, 95.79 -131.24 C99.52 -130.38, 104.47 -121.84, 103.24 -115.47 C102.01 -109.1, 84.29 -89.43, 88.4 -93.02 C92.51 -96.62, 118.19 -130.34, 127.88 -137.03 C137.57 -143.72, 150.18 -140.09, 146.51 -133.14 C142.84 -126.19, 103.43 -95.48, 105.85 -95.34 C108.27 -95.2, 150.67 -127.93, 161.02 -132.31 C171.37 -136.69, 173.5 -130.37, 167.95 -121.62 C162.41 -112.87, 128.24 -81.06, 127.72 -79.8 C127.21 -78.53, 156.69 -109.94, 164.87 -114.03 C173.06 -118.12, 181.3 -111.48, 176.82 -104.34 C172.35 -97.2, 137.62 -72.85, 138.02 -71.18 C138.42 -69.51, 170.79 -91.58, 179.22 -94.34 C187.66 -97.09, 195 -96.49, 188.63 -87.69 C182.26 -78.88, 153.59 -53.08, 140.99 -41.49 C128.4 -29.9, 121.52 -23.79, 113.06 -18.15 C104.6 -12.51, 102.8 -17.49, 90.23 -7.66 C77.66 2.18, 54.34 36.54, 37.62 40.85 C20.91 45.16, -3.32 25.52, -10.03 18.2 C-16.75 10.89, -4.91 0.51, -2.65 -3.04" stroke="#000000" stroke-width="4" fill="none"/></g></g><mask/></svg>