<svg version="1.1" xmlns="http://www.w3.org/2000/svg" viewBox="0 0 272.60513833876774 77.09570490615965" width="272.60513833876774" height="77.09570490615965">
  <!-- svg-source:excalidraw -->
  
  <defs>
    <style class="style-fonts">
      @font-face {
        font-family: "Virgil";
        src: url("https://excalidraw.com/Virgil.woff2");
      }
      @font-face {
        font-family: "Cascadia";
        src: url("https://excalidraw.com/Cascadia.woff2");
      }
    </style>
  </defs>
  <rect x="0" y="0" width="272.60513833876774" height="77.09570490615965" fill="transparent"/><g stroke-linecap="round"><g transform="translate(14.05417278031166 10.779653166015919) rotate(0 122.48995926718348 27.4676999236695)" fill-rule="evenodd"><path d="M1.97 0.27 L245.04 0.57 L245.06 53.64 L-0.06 55.34 L-3.99 1.02" stroke="none" stroke-width="0" fill="#d9480f" fill-rule="evenodd"/><path d="M-1.87 0.53 C79.76 0.52, 157.36 3.06, 241.14 3.26 M-0.09 0.65 C77.19 5.21, 155.13 4.19, 243.02 2.1 M243.12 2.41 C244.33 14.66, 242.1 33.89, 244.12 55.06 M243.72 -0.78 C245.01 14.93, 246.16 31.33, 244.73 53.35 M248.55 56.1 C189.79 52.38, 140.16 52.22, 0.49 53.93 M245.4 56.22 C188.21 56.7, 132.73 55.23, 0.51 55.07 M-4.05 51.26 C-4.26 41.76, 1.65 20.99, -0.13 3.85 M1.21 54.43 C-2.92 41.87, -1.91 33.47, -0.06 0.75 M0 0 C0 0, 0 0, 0 0 M0 0 C0 0, 0 0, 0 0" stroke="#d9480f" stroke-width="4" fill="none"/></g></g><mask/></svg>