<svg version="1.1" xmlns="http://www.w3.org/2000/svg" viewBox="0 0 271.42779875529135 258.40963569373696" width="271.42779875529135" height="258.40963569373696">
  <!-- svg-source:excalidraw -->
  
  <defs>
    <style class="style-fonts">
      @font-face {
        font-family: "Virgil";
        src: url("https://excalidraw.com/Virgil.woff2");
      }
      @font-face {
        font-family: "Cascadia";
        src: url("https://excalidraw.com/Cascadia.woff2");
      }
    </style>
  </defs>
  <rect x="0" y="0" width="271.42779875529135" height="258.40963569373696" fill="transparent"/><g stroke-linecap="round"><g transform="translate(12.782937180250883 95.902160597038) rotate(0 122.48995926718348 33.701006641955956)" fill-rule="evenodd"><path d="M-1.82 1.12 L85.74 -2.1 L94 -84.91 L144.24 -84.39 L144.99 2.17 L246.56 3.32 L243.09 54.56 L147.68 56.77 L147.27 149.79 L87.75 152.55 L93.03 56.14 L-0.83 51.01 L-2.93 -0.45" stroke="none" stroke-width="0" fill="#f79e05" fill-rule="evenodd"/><path d="M-1.36 -2.84 C28.94 -1.3, 62.93 0.19, 87.5 -1.23 M-1.75 0.11 C34.64 -0.6, 64.78 1.96, 90.74 -1.55 M92.4 3.6 C85.85 -29.6, 86.94 -67.77, 94.35 -81.06 M90.87 -0.62 C91.31 -32.85, 91.65 -65.58, 91.22 -84.13 M87.74 -82.9 C112.31 -87.17, 129.22 -81.97, 147.28 -85.9 M91.7 -83.2 C111.93 -83.08, 133.83 -83.11, 142.9 -83.66 M147.3 -85.75 C144.15 -53.62, 144.12 -28.35, 145.67 -3.76 M144.42 -83.69 C145.33 -60.55, 143.69 -41.34, 145.3 -0.1 M144.21 0.81 C163.95 1.54, 191.98 0.69, 243.45 -0.91 M142.93 -0.18 C167.17 -2.27, 189.23 -0.39, 244.54 1.76 M241.1 1.28 C240.28 16.12, 241.33 37.69, 247.59 54.73 M242.25 1.89 C246.53 11.12, 244.44 21.44, 245.69 56.14 M248.64 51.52 C227.88 57.79, 203.74 54.69, 141.74 55.49 M246.82 53.6 C206.69 51.36, 168.22 53.9, 144.18 55.34 M141.22 52.66 C139.28 75.46, 145.34 93, 141.59 147.1 M141.99 53.62 C145.56 89.51, 142.7 128.36, 147.05 150.08 M144.26 148.2 C130.15 149.06, 122.31 150.01, 88.57 148.24 M143.16 152.51 C130.85 150.62, 115.28 148.73, 90.35 150.2 M87.89 151.61 C92.21 128.91, 93.5 102.36, 89.31 55.17 M89.29 149.48 C93.17 114.6, 93.01 77.99, 92.5 56.53 M94.45 58.92 C68.62 54.64, 48.99 59.48, 2.33 56.42 M92.2 56.23 C59.52 57.54, 25.36 53.87, 0.78 52.74 M1.2 55.44 C4.37 31.27, -0.56 9.07, -2.78 0.84 M-0.96 52.78 C-2.44 39.84, -1.69 30.4, 0.28 0.6 M0 0 C0 0, 0 0, 0 0 M0 0 C0 0, 0 0, 0 0" stroke="#f79e05" stroke-width="4" fill="none"/></g></g><mask/></svg>