<svg version="1.1" xmlns="http://www.w3.org/2000/svg" viewBox="0 0 387.68603573575115 316.10557256327064" width="387.68603573575115" height="316.10557256327064" filter="invert(93%) hue-rotate(180deg)">
  <!-- svg-source:excalidraw -->
  
  <defs>
    <style class="style-fonts">
      @font-face {
        font-family: "Virgil";
        src: url("https://excalidraw.com/Virgil.woff2");
      }
      @font-face {
        font-family: "Cascadia";
        src: url("https://excalidraw.com/Cascadia.woff2");
      }
    </style>
  </defs>
  <rect x="0" y="0" width="387.68603573575115" height="316.10557256327064" fill="transparent"/><g stroke-linecap="round"><g transform="translate(71.90715880587197 27.104614134344274) rotate(0 70 84.39997863769531)" fill-rule="evenodd"><path d="M3.9 -1.35 L-54.14 103.6 L-64.92 129.25 L-61.6 135.78 L-46.55 135.29 L3.74 121.63 L30.66 119.84 L59.55 114.1 L75.45 123.06 L115.4 178.73 L122.11 182.43 L130.23 181.17 L138.48 176.67 L162.99 166.9 L184.05 141.03 L193.2 129.71 L204.89 99.54 L199.78 90.77 L195.92 60.24 L180.75 40.71 L167.59 25.04 L148.23 3.11 L137.7 -3.13 L99.4 -5.37 L48.12 -13.06 L10.53 -15.21 L2.19 -6.98 L2.62 1.23" stroke="none" stroke-width="0" fill="#000" fill-rule="evenodd"/><path d="M-0.13 1.83 C-9.93 23.32, -60.48 108.74, -60.9 129.14 C-61.32 149.54, -23.48 125.64, -2.64 124.24 C18.21 122.84, 42.09 110.84, 64.16 120.74 C86.24 130.65, 106.69 186.82, 129.81 183.66 C152.93 180.49, 199.84 131.64, 202.88 101.75 C205.93 71.85, 178.08 23.81, 148.09 4.27 C118.09 -15.27, 47.28 -14.73, 22.92 -15.49 C-1.45 -16.25, 5.65 -2.64, 1.92 -0.28 M-3.65 0.35 C-13.42 22.2, -62.96 112.12, -61.89 132.08 C-60.82 152.05, -18.21 121.61, 2.76 120.15 C23.74 118.69, 43.21 112.54, 63.97 123.32 C84.73 134.1, 103.64 188.89, 127.32 184.83 C151 180.76, 202.47 128.31, 206.05 98.94 C209.62 69.56, 179.81 27.88, 148.78 8.58 C117.76 -10.73, 44.87 -14.84, 19.91 -16.89 C-5.06 -18.93, 1.89 -5.99, -0.98 -3.7" stroke="#000000" stroke-width="4" fill="none"/></g></g><mask/><g stroke-linecap="round"><g transform="translate(275.1071710129032 119.90460192731302) rotate(0 49.600006103515625 57.19999694824219)"><path d="M2.3 -1.26 C6.55 10.21, 11.99 60.44, 25.36 70.64 C38.74 80.84, 69.96 52.58, 82.56 59.94 C95.17 67.31, 98.29 105.89, 101.01 114.86 M0.1 4.23 C5.19 14.81, 17.02 57.27, 30.33 67.07 C43.65 76.87, 67.94 54.58, 79.98 63.02 C92.02 71.46, 100.03 109.16, 102.58 117.71" stroke="#000000" stroke-width="4" fill="none"/></g></g><mask/><g stroke-linecap="round"><g transform="translate(204.70714659884072 211.10461413434427) rotate(0 69.20004272460938 45.59999084472656)"><path d="M-2.64 2.64 C-1.66 7.38, -3.64 22.44, 8.16 27.14 C19.97 31.85, 54.43 20.29, 68.21 30.86 C82 41.42, 79.44 81.91, 90.88 90.55 C102.33 99.18, 129.15 83.81, 136.89 82.67 M1.13 1.61 C2.83 6.94, 2.74 25.31, 13.79 30.74 C24.83 36.18, 54.47 23.87, 67.39 34.21 C80.31 44.56, 78.99 84.76, 91.3 92.8 C103.6 100.83, 133.1 84.46, 141.23 82.44" stroke="#000000" stroke-width="4" fill="none"/></g></g><mask/><g stroke-linecap="round"><g transform="translate(13.507195426965723 164.70458972028177) rotate(0 45.199951171875 48.80000305175781)"><path d="M-1.44 -0.06 C-0.83 5.58, -6.91 30.96, 1.01 36.46 C8.93 41.96, 31.31 23.11, 46.08 32.95 C60.86 42.78, 82.35 84.88, 89.69 95.47 M2.98 -2.55 C3.62 3.37, -7.1 25.32, -0.24 31.69 C6.61 38.07, 29.16 24.83, 44.11 35.7 C59.05 46.57, 81.02 86.73, 89.45 96.92" stroke="#000000" stroke-width="4" fill="none"/></g></g><mask/><g stroke-linecap="round"><g transform="translate(80.94503919743215 25.695989224600908) rotate(0 64.96481895784592 85.16636535920622)" fill-rule="evenodd"><path d="M2.02 -3.73 L-48.18 91.01 L-52.41 116.02 L-50.29 122.53 L-33.59 119.23 L20.9 101.02 L45.05 106.13 L52.37 106.15 L62.51 113.37 L76.72 119.26 L103.57 160.99 L123.36 172.75 L147.03 163.53 L176.09 122.71 L184.78 101.09 L183.26 78.28 L158.95 48.66 L140.85 22.91 L116.99 7.53 L73.51 2.97 L21.54 -3.73 L7.24 -4.32 L-1.4 3.43" stroke="none" stroke-width="0" fill="#15aabf" fill-rule="evenodd"/><path d="M1.81 0.46 C-7.37 19.93, -59.33 99.82, -56.53 116.79 C-53.74 133.76, -1.08 103.48, 18.57 102.28 C38.23 101.08, 45.56 99.04, 61.38 109.59 C77.2 120.14, 102.3 154.92, 113.5 165.57 C124.7 176.21, 119.34 177.81, 128.58 173.45 C137.83 169.09, 159.31 151.01, 168.99 139.39 C178.66 127.77, 186.65 117, 186.61 103.73 C186.58 90.46, 178.71 74.83, 168.77 59.77 C158.83 44.71, 150.51 24.26, 126.98 13.36 C103.44 2.46, 48.3 -3.42, 27.57 -5.64 C6.84 -7.86, 7.47 -1.28, 2.62 0.02 M-0.65 -1.76 C-10.1 18.14, -61.71 102.39, -58.94 120.06 C-56.18 137.73, -4.11 105.64, 15.94 104.23 C36 102.82, 45.52 101.26, 61.38 111.61 C77.23 121.96, 99.26 155.12, 111.07 166.33 C122.88 177.55, 123.52 182.56, 132.23 178.89 C140.95 175.23, 154.64 157.06, 163.35 144.34 C172.05 131.62, 182.91 116.99, 184.45 102.57 C185.99 88.15, 181.87 72.85, 172.58 57.8 C163.29 42.74, 152.6 22.54, 128.7 12.25 C104.81 1.96, 50.54 -1.74, 29.21 -3.94 C7.87 -6.15, 5.88 -1.86, 0.71 -0.97" stroke="#000000" stroke-width="4" fill="none"/></g></g><mask/><g stroke-linecap="round"><g transform="translate(79.10717101290322 91.10461413434427) rotate(0 63.20001220703125 19.599990844726562)"><path d="M-0.32 -0.65 C6.6 -1.89, 28.75 -8.06, 43.29 -6.93 C57.82 -5.8, 72.74 -2.33, 86.92 6.11 C101.09 14.55, 121.65 37.63, 128.32 43.72 M-3.93 -3.48 C3.75 -4.46, 34.13 -6.48, 48.87 -4.46 C63.61 -2.44, 71.01 0.19, 84.52 8.63 C98.03 17.07, 123.4 40.47, 129.95 46.17" stroke="#000000" stroke-width="4" fill="none"/></g></g><mask/><g stroke-linecap="round"><g transform="translate(94.30718321993447 65.50460803082865) rotate(0 61.600006103515625 17.199996948242188)"><path d="M-1.51 -2.13 C6.22 -2.87, 32.48 -5.93, 46.12 -5.09 C59.76 -4.25, 67.38 -4.11, 80.32 2.92 C93.27 9.94, 116.18 31.28, 123.78 37.04 M2.86 2.88 C10.16 2.59, 30.51 -2.55, 43.29 -2.05 C56.07 -1.55, 66 -0.95, 79.56 5.87 C93.12 12.7, 117.28 33.57, 124.68 38.9" stroke="#000000" stroke-width="4" fill="none"/></g></g><mask/></svg>